<svg version="1" xmlns="http://www.w3.org/2000/svg" width="682.667" height="682.667" viewBox="0 0 512.000000 512.000000"><path d="M339 .9c-5.8 1.2-10 3.7-24.1 14.2-19 14.3-28.4 22.3-44.8 38.4-22.3 21.8-42.2 46.6-57.3 71.5-3.5 5.8-9 13.1-12.1 16.2-3.7 3.6-6.9 8.1-8.8 12.3-3.4 7.2-2.3 6.6-18.9 10.4-23.9 5.4-48 8-80.5 8.7-31.4.7-34.9 1.4-41.6 8.3-13.6 14.1-9.2 39.6 8.5 48.9l5.1 2.7 27-.1c39-.2 69.4-3.8 104.4-12.4l15.8-3.9 12.2 6.4c6.8 3.5 15.3 8.6 18.9 11.2 7.3 5.2 15.2 12.1 15.2 13.3 0 .6-31.8 35.8-40.6 44.9l-2.3 2.5-12.1-5.5c-6.7-2.9-12.4-5.7-12.6-6.1-.2-.3-2.9-11.6-6-25-3-13.4-6.2-25-7-25.8-1.1-1.1-1.9-1.2-3.2-.4-.9.6-6.5 10.2-12.4 21.5l-10.7 20.4-5.3 1.1c-11.9 2.4-25 8.1-36.3 15.7-8.4 5.7-22.7 19.8-29.7 29C67.4 336 62.7 347.5 50 391.8c-13.8 48.1-20.9 65.4-38.1 92.9-4.4 6.9-7.7 12.8-7.5 13 .8.8 70.9 6.1 95.1 7.2 13.8.6 34.5 2.2 46 3.6 24.8 2.8 33.1 3.3 34.4 2 .5-.6 1.5-14.3 2.1-30.5 1.2-32.2 2.6-65.1 3.6-82.8l.7-11.2h6.6c3.6 0 24.4.5 46.1 1.1 43.5 1.3 44.3 1.3 52.7-4.4 5.9-3.9 9.7-10.5 11.8-20.6 2.9-14 1.2-21.9-6.3-28.2-3.4-2.8-19.2-10.9-33.4-17.2l-5.7-2.6 10.7-18c5.8-10 11-18.1 11.3-18.1.4 0 2.8 3.8 5.4 8.4 2.6 4.6 6.9 10.6 9.7 13.3 8.2 8 19.9 33.3 25.4 55.2 5.7 22.2 6.7 49.4 2.8 69.6-.8 4.4-1.8 11.5-2.1 15.8-.5 7.2-.4 8.1 2.6 14.2 3.5 7.1 8.8 12.1 16.7 15.7 4.1 1.9 6.6 2.3 14.9 2.3 9.2 0 10.4-.2 15.3-2.9 9.7-5.4 13.9-11.9 17-26.6 7.2-33.6 6-70.5-3.2-105.5-1.9-7.2-4.9-16.8-6.5-21.3-1.7-4.5-2.7-8.2-2.3-8.2 1.4 0 15.2 9.8 24.8 17.6 16.2 13.1 31.5 30 46.6 51.5 7.8 11 16.7 15.5 28.9 14.7 16.4-1.2 30.7-14.3 32.6-29.7.9-7.5-1.3-14.2-7.7-23.9-29.4-44.6-74.5-82.1-126.5-105.3l-13-5.8-9-13.4c-5-7.4-10.9-15.6-13.2-18.4l-4.2-4.9 15.4-28.5c8.5-15.6 15.5-29 15.5-29.7 0-.6-.4-1.2-.9-1.2-.7 0-15.8 16-39.2 41.4l-3.6 4-6.9-6.1c-8.9-7.8-19.5-15.4-31.4-22.7-5.2-3.2-9.7-6-9.9-6.2-.6-.5 4.7-8 13.4-18.9 16.1-20.3 37.4-40.3 63.3-59.7 7.3-5.5 14.6-11.7 16.1-13.8 10.3-14.2 3.9-37.7-12.2-45.4C348.6.8 343.9 0 339 .9zM179 266.6c2.5 10.8 4.9 20.2 5.5 20.9.5.7 21.5 10.6 46.5 22s49 22.5 53.3 24.7c12.9 6.7 15.1 11.2 12.4 25-1.9 9.7-4.3 14.6-8.7 17.6-6.5 4.4-9 4.5-48 3.2-20.1-.6-41.4-1.3-47.5-1.3-10.8-.2-11-.2-12.1 2.3-1.6 3.3-3.5 35.1-6 98.6l-.6 17.2-3.7-.4c-39.6-4.4-52.6-5.5-75.9-6.4-15.2-.6-34.1-1.4-41.9-1.8l-14.2-.7 6-7c6.9-8 13.5-18.4 26-40.6 17.3-30.7 57-105.3 97.4-182.6 3.2-6.2 6.1-11 6.5-10.8.4.2 2.6 9.2 5 20.1z"/><path d="M124 16.5c-8.6 1.9-23.2 9.2-29.9 15-14.4 12.3-23.3 29-24.9 46.4-2.8 30.6 12 57.2 39.3 70.7 11.8 5.8 21 7.8 34 7.1 31-1.6 55.1-20.9 64.6-51.7 2.7-8.9 3.2-25.1 1-34-2-8.1-8.3-21.1-13.6-28-8.3-10.8-21.4-19.7-35-24-9.1-2.9-26.3-3.6-35.5-1.5z"/></svg>