<?xml version="1.0" encoding="utf-8"?>
<!-- Generator: Adobe Illustrator 16.0.3, SVG Export Plug-In . SVG Version: 6.00 Build 0)  -->
<!DOCTYPE svg PUBLIC "-//W3C//DTD SVG 1.0//EN" "http://www.w3.org/TR/2001/REC-SVG-20010904/DTD/svg10.dtd">
<svg version="1.0" xmlns="http://www.w3.org/2000/svg" xmlns:xlink="http://www.w3.org/1999/xlink" x="0px" y="0px" width="370px"
	 height="60px" viewBox="0 0 370 60" enable-background="new 0 0 370 60" xml:space="preserve">
<g id="Calque_1">
	<g>
		<g>
			<path fill="#B1B3B4" d="M360.217,52.582c1.123,0,2.046,0.895,2.046,2.018c0,1.121-0.923,2.041-2.046,2.041
				c-1.12,0-2.039-0.92-2.039-2.041C358.178,53.477,359.097,52.582,360.217,52.582z"/>
			<path fill="#B1B3B4" d="M362.187,45.209c0,3.439-1.793,5.579-6.007,5.579c-3.855,0-6.819-2.02-6.819-6.399
				c0-0.847,0.125-1.742,0.349-2.542l2.765,0.324c-0.249,0.673-0.447,1.444-0.447,2.241c0,2.018,1.494,3.039,3.835,3.039
				c2.113,0,3.561-0.821,3.561-2.94c0-0.846-0.178-1.766-0.527-2.441l2.727-0.247C361.94,42.668,362.187,43.893,362.187,45.209z"/>
			<path fill="#B1B3B4" d="M362.21,34.699c0,3.514-1.816,5.778-6.224,5.778c-3.864,0-6.651-2.566-6.651-6.324
				c0-3.514,1.944-5.784,6.198-5.784C359.422,28.37,362.21,30.986,362.21,34.699z M352.026,34.372c0,1.421,1.095,2.816,3.633,2.816
				c2.541,0,3.838-0.92,3.838-2.763c0-1.569-1.272-2.765-3.784-2.765C353.319,31.661,352.026,32.509,352.026,34.372z"/>
			<path fill="#B1B3B4" d="M361.963,11.115h-7.846c-1.322,0-2.143,0.297-2.143,1.467c0,1.396,1.647,2.842,4.058,2.842h5.931v3.136
				h-7.846c-1.223,0-2.143,0.248-2.143,1.472c0,1.467,1.742,2.838,4.058,2.838h5.931v3.188h-12.377v-3.015
				c0.577,0,1.489,0.052,2.213,0.176v-0.051c-1.52-0.745-2.493-2.242-2.493-4.083c0-2.194,1.3-3.117,2.493-3.413
				c-1.221-0.573-2.493-1.944-2.493-4.035c0-2.394,1.323-3.709,4.138-3.709h8.52V11.115z"/>
		</g>
		<path fill="#005FA8" d="M25.399,5.997h7.147l19.325,44.232h-8.149l-4.457-10.607H18.493l-4.517,10.607H6.072L25.399,5.997z
			 M36.439,32.784l-7.592-17.565L21.32,32.784H36.439z"/>
		<path fill="#005FA8" d="M56.388,17.099h7.591v7.471c2.07-4.961,5.901-8.347,11.731-8.097v8.03h-0.435
			c-6.652,0-11.296,4.326-11.296,13.116v12.61h-7.591V17.099z"/>
		<path fill="#005FA8" d="M98.865,50.229v-4.08c-2.262,2.698-5.709,4.767-10.73,4.767c-6.271,0-11.792-3.576-11.792-10.223v-0.128
			c0-7.339,5.709-10.852,13.427-10.852c4.012,0,6.587,0.563,9.155,1.378v-0.626c0-4.581-2.884-7.093-8.156-7.093
			c-3.706,0-6.457,0.817-9.475,2.072l-2.069-6.085c3.638-1.634,7.218-2.761,12.613-2.761c9.788,0,14.557,5.146,14.557,13.993v19.638
			H98.865z M99.052,36.361c-1.942-0.753-4.645-1.317-7.592-1.317c-4.771,0-7.592,1.949-7.592,5.144v0.126
			c0,3.135,2.822,4.896,6.402,4.896c5.018,0,8.783-2.826,8.783-6.965V36.361z"/>
		<path fill="#005FA8" d="M113.297,17.099h7.588v5.023c2.133-2.95,5.02-5.712,10.104-5.712c4.765,0,8.089,2.321,9.851,5.834
			c2.695-3.514,6.211-5.834,11.23-5.834c7.21,0,11.607,4.582,11.607,12.671v21.149h-7.594V31.404c0-5.27-2.447-8.094-6.716-8.094
			c-4.141,0-7.089,2.885-7.089,8.221v18.698h-7.592V31.343c0-5.147-2.509-8.032-6.713-8.032c-4.201,0-7.09,3.136-7.09,8.286v18.633
			h-7.588V17.099z"/>
		<path fill="#005FA8" d="M170.886,4.806h8.159v7.21h-8.159V4.806z M171.203,17.099h7.59v33.131h-7.59V17.099z"/>
		<path fill="#005FA8" d="M183.879,45.897l3.386-5.145c3.573,2.695,7.464,4.079,10.853,4.079c3.262,0,5.145-1.384,5.145-3.578
			v-0.122c0-2.575-3.513-3.453-7.402-4.644c-4.895-1.384-10.348-3.388-10.348-9.729v-0.12c0-6.274,5.203-10.105,11.789-10.105
			c4.139,0,8.658,1.443,12.169,3.769l-3.011,5.396c-3.197-1.946-6.59-3.139-9.348-3.139c-2.944,0-4.641,1.379-4.641,3.326v0.124
			c0,2.378,3.574,3.387,7.465,4.643c4.831,1.506,10.291,3.7,10.291,9.661v0.126c0,6.964-5.394,10.414-12.299,10.414
			C193.224,50.854,188.018,49.16,183.879,45.897z"/>
		<path fill="#B1B3B4" d="M236.07,50.229v-4.08c-2.255,2.698-5.709,4.767-10.726,4.767c-6.272,0-11.792-3.576-11.792-10.223v-0.128
			c0-7.339,5.706-10.852,13.424-10.852c4.015,0,6.591,0.563,9.159,1.378v-0.626c0-4.581-2.89-7.093-8.152-7.093
			c-3.702,0-6.468,0.817-9.474,2.072l-2.069-6.085c3.631-1.634,7.213-2.761,12.604-2.761c9.789,0,14.552,5.146,14.552,13.993v19.638
			H236.07z M236.265,36.361c-1.948-0.753-4.645-1.317-7.595-1.317c-4.768,0-7.588,1.949-7.588,5.144v0.126
			c0,3.135,2.82,4.896,6.395,4.896c5.018,0,8.788-2.826,8.788-6.965V36.361z"/>
		<path fill="#B1B3B4" d="M250.127,38.181V17.099h7.586v18.824c0,5.145,2.578,8.094,7.093,8.094c4.394,0,7.468-3.075,7.468-8.219
			V17.099h7.59v33.131h-7.59v-5.145c-2.132,3.133-5.207,5.831-10.35,5.831C254.459,50.916,250.127,45.897,250.127,38.181z"/>
		<path fill="#B1B3B4" d="M288.837,41.067V23.626h-4.206v-6.528h4.206V8.003h7.586v9.096h8.912v6.528h-8.912v16.25
			c0,2.945,1.512,4.14,4.081,4.14c1.696,0,3.198-0.38,4.705-1.131v6.212c-1.879,1.067-4.017,1.695-6.836,1.695
			C292.785,50.793,288.837,48.345,288.837,41.067z"/>
		<path fill="#B1B3B4" d="M308.091,33.852v-0.126c0-9.474,7.528-17.316,17.691-17.316c10.173,0,17.638,7.717,17.638,17.191v0.125
			c0,9.411-7.531,17.253-17.756,17.253C315.563,50.979,308.091,43.264,308.091,33.852z M335.823,33.852v-0.126
			c0-5.837-4.203-10.665-10.159-10.665c-6.091,0-9.981,4.766-9.981,10.54v0.125c0,5.771,4.21,10.669,10.1,10.669
			C331.938,44.395,335.823,39.563,335.823,33.852z"/>
	</g>
</g>
<g id="Calque_2">
</g>
</svg>
