<?xml version="1.0" encoding="utf-8"?>
<!-- Generator: Adobe Illustrator 19.2.1, SVG Export Plug-In . SVG Version: 6.00 Build 0)  -->
<svg version="1.1"
	 id="Calque_1" inkscape:version="0.91 r13725" sodipodi:docname="slidor.svg" xmlns:cc="http://creativecommons.org/ns#" xmlns:dc="http://purl.org/dc/elements/1.1/" xmlns:inkscape="http://www.inkscape.org/namespaces/inkscape" xmlns:rdf="http://www.w3.org/1999/02/22-rdf-syntax-ns#" xmlns:sodipodi="http://sodipodi.sourceforge.net/DTD/sodipodi-0.dtd" xmlns:svg="http://www.w3.org/2000/svg"
	 xmlns="http://www.w3.org/2000/svg" xmlns:xlink="http://www.w3.org/1999/xlink" x="0px" y="0px" viewBox="0 0 353.9 71.9"
	 style="enable-background:new 0 0 353.9 71.9;" xml:space="preserve">
<style type="text/css">
	.st0{fill:#F27F59;}
	.st1{opacity:0.3;fill:url(#polygon14_1_);enable-background:new    ;}
	.st2{fill:#000000;}
</style>
<sodipodi:namedview  bordercolor="#666666" borderopacity="1" gridtolerance="10" guidetolerance="10" id="namedview30" inkscape:current-layer="Calque_1" inkscape:cx="209.38307" inkscape:cy="19.60302" inkscape:pageopacity="0" inkscape:pageshadow="2" inkscape:window-height="1017" inkscape:window-maximized="1" inkscape:window-width="1920" inkscape:window-x="1912" inkscape:window-y="-8" inkscape:zoom="2.8452107" objecttolerance="10" pagecolor="#000000" showgrid="false">
	</sodipodi:namedview>
<g id="g3">
	<polygon id="polygon5" class="st0" points="27.7,65 75.7,35.9 64,29 0,67 16.2,71.9 	"/>
	<polygon id="polygon7" class="st0" points="16.2,0 75.7,36 64,43 0.4,4.7 	"/>
	
		<linearGradient id="polygon14_1_" gradientUnits="userSpaceOnUse" x1="56.1857" y1="36.4182" x2="49.9348" y2="26.4147" gradientTransform="matrix(1 0 0 -1 0 74)">
		<stop  offset="0" style="stop-color:#010101"/>
		<stop  offset="1" style="stop-color:#010101;stop-opacity:0"/>
	</linearGradient>
	<polygon id="polygon14" class="st1" points="52.8,35.7 64.5,42.8 53.4,49.4 41.6,42.4 	"/>
</g>
<g id="g4146">
	<path id="path18" class="st2" d="M148.4,19.1l7.5-4.6v35.9h22.5v6.8h-30V19.1z"/>
	<path id="path20" class="st2" d="M189.7,19.3l7.5-4.7v42.8h-7.5V19.3z"/>
	<path id="path22" class="st2" d="M211.7,14.6h16c3.3,0,6.4,0.5,9.2,1.6s5.2,2.6,7.2,4.5s3.6,4.2,4.7,6.8c1.1,2.6,1.7,5.4,1.7,8.4
		V36c0,3-0.5,5.8-1.7,8.4c-1.1,2.6-2.7,4.9-4.7,6.8c-2,1.9-4.4,3.4-7.2,4.5s-5.9,1.7-9.2,1.7h-16V14.6z M219.2,21.4v29.1h8.4
		c2.2,0,4.3-0.4,6.1-1.1c1.8-0.7,3.4-1.7,4.7-3s2.3-2.8,3-4.6s1.1-3.7,1.1-5.8v0c0-2.1-0.4-4-1.1-5.8c-0.7-1.8-1.7-3.3-3-4.6
		c-1.3-1.3-2.8-2.3-4.7-3c-1.8-0.7-3.9-1.1-6.1-1.1h-8.4V21.4z"/>
	<path id="path24" class="st2" d="M282.9,58.1c-3.3,0-6.3-0.6-9-1.7c-2.7-1.2-5.1-2.7-7-4.7c-2-2-3.5-4.3-4.6-7s-1.6-5.5-1.6-8.5V36
		c0-3,0.5-5.9,1.6-8.5c1.1-2.7,2.6-5,4.6-7s4.4-3.6,7.1-4.8s5.7-1.8,9-1.8s6.3,0.6,9,1.7c2.7,1.2,5.1,2.7,7,4.7c2,2,3.5,4.3,4.6,7
		s1.6,5.5,1.6,8.5V36c0,3-0.5,5.9-1.6,8.5c-1.1,2.7-2.6,5-4.6,7s-4.4,3.6-7.1,4.8C289.2,57.5,286.2,58.1,282.9,58.1z M283.1,51.1
		c2.1,0,4.1-0.4,5.8-1.2c1.8-0.8,3.3-1.9,4.6-3.2c1.3-1.3,2.3-2.9,3-4.8c0.7-1.8,1.1-3.8,1.1-5.9v-0.1c0-2.1-0.4-4.1-1.1-5.9
		c-0.7-1.9-1.7-3.5-3-4.8c-1.3-1.4-2.8-2.5-4.6-3.3c-1.8-0.8-3.7-1.2-5.9-1.2c-2.1,0-4.1,0.4-5.8,1.2s-3.3,1.9-4.6,3.2
		c-1.3,1.4-2.3,3-3,4.8s-1.1,3.8-1.1,5.9v0.1c0,2.1,0.4,4,1.1,5.9s1.7,3.4,3,4.8c1.3,1.4,2.8,2.5,4.6,3.3
		C279,50.7,280.9,51.1,283.1,51.1z"/>
	<path id="path26" class="st2" d="M317.5,14.6h19.1c2.7,0,5.1,0.4,7.2,1.1c2.1,0.8,3.8,1.8,5.2,3.1c1.1,1.2,2,2.5,2.6,4.1
		c0.6,1.5,0.9,3.3,0.9,5.1v0.1c0,3.5-0.9,6.3-2.8,8.5c-1.9,2.1-4.3,3.6-7.3,4.5L354,57.3h-9l-10.5-14.9H325v14.9h-7.5V14.6z
		 M336,35.8c2.7,0,4.8-0.6,6.4-1.9c1.6-1.3,2.4-3,2.4-5.2v-0.1c0-2.3-0.8-4.1-2.3-5.3s-3.7-1.8-6.5-1.8h-11v14.4L336,35.8L336,35.8z
		"/>
	<path id="path28" class="st2" d="M121.3,58.3c-3.3,0-6.5-0.6-9.5-1.7c-3-1.1-5.8-2.8-8.4-5.2l6.4-3.8c0,0,0,0,0.1,0
		c1.4,1.1,2.9,1.9,4.4,2.6c2.1,1,4.5,1.4,7.2,1.4c2.3,0,4.2-0.5,5.5-1.5c1.4-1,2-2.3,2-3.9v-0.1c0-0.8-0.1-1.5-0.4-2
		c-0.3-0.6-0.8-1.2-1.5-1.7s-1.7-1-2.9-1.5c-1.2-0.4-2.9-0.9-4.9-1.3c-2.3-0.5-4.3-1.1-6.1-1.8c-1.8-0.7-3.3-1.5-4.5-2.4
		c-1.2-1-2.1-2.1-2.8-3.5c-0.6-1.4-0.9-3.1-0.9-5v-0.1c0-1.8,0.4-3.5,1.1-5s1.7-2.8,3-3.9s2.8-1.9,4.6-2.5c1.8-0.6,3.7-0.9,5.9-0.9
		c3.1,0,6,0.5,8.5,1.4c2.5,0.9,4.9,2.3,7.1,4l-6.6,4c0,0-0.1,0-0.2-0.1c-1-0.6-2-1.1-3.1-1.5c-1.9-0.8-3.9-1.1-5.8-1.1
		c-2.2,0-3.9,0.5-5.1,1.5s-1.8,2.2-1.8,3.6v0.1c0,0.8,0.1,1.5,0.4,2.2c0.3,0.6,0.8,1.2,1.6,1.7c0.8,0.5,1.8,1,3.1,1.4
		c1.3,0.4,3,0.9,5.1,1.4c2.2,0.6,4.2,1.2,5.9,1.9s3.1,1.5,4.3,2.5s2,2.2,2.6,3.5s0.9,2.9,0.9,4.6v0.1c0,2-0.4,3.8-1.1,5.4
		c-0.8,1.6-1.8,2.9-3.1,4s-3,1.9-4.8,2.5C125.6,58.1,123.5,58.3,121.3,58.3z"/>
</g>
</svg>
