<svg xmlns="http://www.w3.org/2000/svg" viewBox="0 0 512 512" width="512" height="512"><path d="M465.681 67.429h-64.374v-56C401.307 5.117 396.191 0 389.879 0H122.055c-6.312 0-11.429 5.117-11.429 11.429v56H46.319c-6.312 0-11.429 5.117-11.429 11.429 0 52.261 31.698 99.522 79.505 119.61 12.247 52.633 53.168 94.383 105.339 107.818 2.106 26.517-15.673 51.427-42.283 57.423-.111.025-.215.063-.323.09-.235.061-.471.121-.701.195-.154.05-.304.11-.455.167-.195.073-.391.144-.582.227-.183.08-.359.169-.535.258-.149.074-.298.146-.443.227-.2.111-.392.232-.584.355-.114.073-.23.143-.341.219-.201.138-.393.287-.584.437-.096.075-.193.149-.287.227-.186.157-.363.322-.539.489-.091.087-.183.173-.271.262-.162.166-.315.339-.467.514-.09.105-.183.208-.27.317-.136.169-.263.343-.389.519-.09.126-.182.251-.267.381-.111.169-.214.344-.315.519-.085.144-.169.287-.247.435-.093.177-.176.359-.261.541-.07.151-.141.302-.203.456-.081.198-.151.4-.221.603-.049.143-.101.283-.144.429-.071.235-.128.475-.184.715-.026.117-.057.231-.08.349-.056.283-.096.57-.131.859-.009.081-.024.161-.032.243-.031.321-.045.645-.049.97 0 .049-.007.096-.007.145v34.283h-32c-6.312 0-11.429 5.117-11.429 11.429v80c0 6.312 5.117 11.429 11.429 11.429h240c6.312 0 11.429-5.117 11.429-11.429v-80c0-6.312-5.117-11.429-11.429-11.429h-32v-34.286a11.38 11.38 0 0 0-3.141-7.856 11.281 11.281 0 0 0-.704-.679c-.038-.033-.073-.069-.111-.102-.232-.201-.473-.39-.72-.571-.055-.04-.106-.082-.162-.121a11.117 11.117 0 0 0-.763-.491c-.059-.035-.117-.073-.176-.107a11.877 11.877 0 0 0-.841-.431c-.053-.024-.103-.051-.155-.075a11.491 11.491 0 0 0-.936-.366c-.041-.014-.081-.031-.122-.045a11.19 11.19 0 0 0-.985-.274c-.039-.009-.075-.023-.114-.032-26.752-6.022-44.538-31.082-42.262-57.731 51.61-13.745 92.019-55.245 104.185-107.475 47.849-20.07 79.579-67.353 79.579-119.642-.001-6.311-5.118-11.427-11.43-11.427zM58.379 90.286h52.248v75.623c0 .045.006.087.007.131.006 1.709.048 3.409.112 5.104-29.067-17.017-48.713-47.093-52.367-80.858zM365.11 432v57.143H147.967V432H365.11zm-43.429-45.714v22.857H191.395v-22.857h130.286zm-99.748-22.857a78.035 78.035 0 0 0 8.67-11.151c8.144-12.725 12.289-27.24 12.19-42.024 4.341.392 8.733.603 13.175.603 4.831 0 9.607-.242 14.319-.705-.103 20.047 7.686 39.062 20.96 53.277h-69.314zm156.516-197.912c0 67.537-54.946 122.483-122.483 122.483s-122.482-54.946-122.482-122.483V22.857H378.45v142.66zm22.737 5.666c.066-1.707.107-3.421.114-5.143 0-.045.007-.087.007-.131V90.286h52.313c-3.655 33.792-23.33 63.887-52.434 80.897z" fill="#adcbe3"/><path d="M291.967 449.143H221.11c-6.312 0-11.429 5.117-11.429 11.429S214.798 472 221.11 472h70.857c6.312 0 11.429-5.117 11.429-11.429s-5.117-11.428-11.429-11.428zm33.211-323.845a11.43 11.43 0 0 0-9.226-7.778l-33.973-4.936-15.193-30.785a11.428 11.428 0 0 0-20.496 0l-15.193 30.785-33.973 4.936a11.43 11.43 0 0 0-6.333 19.495l24.583 23.962-5.803 33.835a11.427 11.427 0 0 0 16.581 12.048l30.386-15.975 30.386 15.974a11.422 11.422 0 0 0 12.036-.871 11.426 11.426 0 0 0 4.546-11.178l-5.803-33.835 24.583-23.961a11.43 11.43 0 0 0 2.892-11.716zm-47.732 23.504a11.425 11.425 0 0 0-3.287 10.115l2.904 16.934-15.208-7.995a11.424 11.424 0 0 0-10.636 0l-15.207 7.995 2.905-16.934a11.428 11.428 0 0 0-3.287-10.117l-12.303-11.992 17.002-2.471a11.43 11.43 0 0 0 8.605-6.251l7.603-15.407 7.603 15.407a11.423 11.423 0 0 0 8.605 6.251l17.002 2.471-12.301 11.994z" fill="#adcbe3"/></svg>