<svg id="Calque_1" xmlns="http://www.w3.org/2000/svg" viewBox="0 0 353.9 71.9"><style>.st0{fill:#f27f59}.st1{opacity:.3;fill:url(#polygon14_1_);enable-background:new}.st2{fill:#fff}</style><g id="g3"><path id="polygon5" class="st0" d="M27.7 65l48-29.1L64 29 0 67l16.2 4.9z"/><path id="polygon7" class="st0" d="M16.2 0l59.5 36L64 43 .4 4.7z"/><linearGradient id="polygon14_1_" gradientUnits="userSpaceOnUse" x1="56.186" y1="36.418" x2="49.935" y2="26.415" gradientTransform="matrix(1 0 0 -1 0 74)"><stop offset="0" stop-color="#010101"/><stop offset="1" stop-color="#010101" stop-opacity="0"/></linearGradient><path id="polygon14" class="st1" d="M52.8 35.7l11.7 7.1-11.1 6.6-11.8-7z"/></g><g id="g4146"><path id="path18" class="st2" d="M148.4 19.1l7.5-4.6v35.9h22.5v6.8h-30V19.1z"/><path id="path20" class="st2" d="M189.7 19.3l7.5-4.7v42.8h-7.5V19.3z"/><path id="path22" class="st2" d="M211.7 14.6h16c3.3 0 6.4.5 9.2 1.6s5.2 2.6 7.2 4.5 3.6 4.2 4.7 6.8c1.1 2.6 1.7 5.4 1.7 8.4v.1c0 3-.5 5.8-1.7 8.4-1.1 2.6-2.7 4.9-4.7 6.8-2 1.9-4.4 3.4-7.2 4.5s-5.9 1.7-9.2 1.7h-16V14.6zm7.5 6.8v29.1h8.4c2.2 0 4.3-.4 6.1-1.1 1.8-.7 3.4-1.7 4.7-3s2.3-2.8 3-4.6 1.1-3.7 1.1-5.8c0-2.1-.4-4-1.1-5.8-.7-1.8-1.7-3.3-3-4.6-1.3-1.3-2.8-2.3-4.7-3-1.8-.7-3.9-1.1-6.1-1.1h-8.4v-.1z"/><path id="path24" class="st2" d="M282.9 58.1c-3.3 0-6.3-.6-9-1.7-2.7-1.2-5.1-2.7-7-4.7-2-2-3.5-4.3-4.6-7s-1.6-5.5-1.6-8.5V36c0-3 .5-5.9 1.6-8.5 1.1-2.7 2.6-5 4.6-7s4.4-3.6 7.1-4.8 5.7-1.8 9-1.8 6.3.6 9 1.7c2.7 1.2 5.1 2.7 7 4.7 2 2 3.5 4.3 4.6 7s1.6 5.5 1.6 8.5v.2c0 3-.5 5.9-1.6 8.5-1.1 2.7-2.6 5-4.6 7s-4.4 3.6-7.1 4.8c-2.7 1.2-5.7 1.8-9 1.8zm.2-7c2.1 0 4.1-.4 5.8-1.2 1.8-.8 3.3-1.9 4.6-3.2 1.3-1.3 2.3-2.9 3-4.8.7-1.8 1.1-3.8 1.1-5.9v-.1c0-2.1-.4-4.1-1.1-5.9-.7-1.9-1.7-3.5-3-4.8-1.3-1.4-2.8-2.5-4.6-3.3-1.8-.8-3.7-1.2-5.9-1.2-2.1 0-4.1.4-5.8 1.2s-3.3 1.9-4.6 3.2c-1.3 1.4-2.3 3-3 4.8s-1.1 3.8-1.1 5.9v.1c0 2.1.4 4 1.1 5.9s1.7 3.4 3 4.8 2.8 2.5 4.6 3.3c1.8.8 3.7 1.2 5.9 1.2z"/><path id="path26" class="st2" d="M317.5 14.6h19.1c2.7 0 5.1.4 7.2 1.1 2.1.8 3.8 1.8 5.2 3.1 1.1 1.2 2 2.5 2.6 4.1.6 1.5.9 3.3.9 5.1v.1c0 3.5-.9 6.3-2.8 8.5-1.9 2.1-4.3 3.6-7.3 4.5L354 57.3h-9l-10.5-14.9H325v14.9h-7.5V14.6zM336 35.8c2.7 0 4.8-.6 6.4-1.9 1.6-1.3 2.4-3 2.4-5.2v-.1c0-2.3-.8-4.1-2.3-5.3s-3.7-1.8-6.5-1.8h-11v14.4l11-.1z"/><path id="path28" class="st2" d="M121.3 58.3c-3.3 0-6.5-.6-9.5-1.7s-5.8-2.8-8.4-5.2l6.4-3.8h.1c1.4 1.1 2.9 1.9 4.4 2.6 2.1 1 4.5 1.4 7.2 1.4 2.3 0 4.2-.5 5.5-1.5 1.4-1 2-2.3 2-3.9v-.1c0-.8-.1-1.5-.4-2-.3-.6-.8-1.2-1.5-1.7s-1.7-1-2.9-1.5c-1.2-.4-2.9-.9-4.9-1.3-2.3-.5-4.3-1.1-6.1-1.8-1.8-.7-3.3-1.5-4.5-2.4-1.2-1-2.1-2.1-2.8-3.5-.6-1.4-.9-3.1-.9-5v-.1c0-1.8.4-3.5 1.1-5s1.7-2.8 3-3.9 2.8-1.9 4.6-2.5c1.8-.6 3.7-.9 5.9-.9 3.1 0 6 .5 8.5 1.4 2.5.9 4.9 2.3 7.1 4l-6.6 4s-.1 0-.2-.1c-1-.6-2-1.1-3.1-1.5-1.9-.8-3.9-1.1-5.8-1.1-2.2 0-3.9.5-5.1 1.5s-1.8 2.2-1.8 3.6v.1c0 .8.1 1.5.4 2.2.3.6.8 1.2 1.6 1.7s1.8 1 3.1 1.4c1.3.4 3 .9 5.1 1.4 2.2.6 4.2 1.2 5.9 1.9s3.1 1.5 4.3 2.5 2 2.2 2.6 3.5.9 2.9.9 4.6v.1c0 2-.4 3.8-1.1 5.4-.8 1.6-1.8 2.9-3.1 4s-3 1.9-4.8 2.5c-1.9.5-4 .7-6.2.7z"/></g></svg>