<?xml version="1.0" standalone="no"?>
<!DOCTYPE svg PUBLIC "-//W3C//DTD SVG 20010904//EN"
 "http://www.w3.org/TR/2001/REC-SVG-20010904/DTD/svg10.dtd">
<svg version="1.0" xmlns="http://www.w3.org/2000/svg"
 width="512.000000pt" height="512.000000pt" viewBox="0 0 512.000000 512.000000"
 preserveAspectRatio="xMidYMid meet">
<metadata>
Created by potrace 1.11, written by Peter Selinger 2001-2013
</metadata>
<g transform="translate(0.000000,512.000000) scale(0.100000,-0.100000)"
fill="#000000" stroke="none">
<path d="M3390 5111 c-58 -12 -100 -37 -241 -142 -190 -143 -284 -223 -448
-384 -223 -218 -422 -466 -573 -715 -35 -58 -90 -131 -121 -162 -37 -36 -69
-81 -88 -123 -34 -72 -23 -66 -189 -104 -239 -54 -480 -80 -805 -87 -314 -7
-349 -14 -416 -83 -136 -141 -92 -396 85 -489 l51 -27 270 1 c390 2 694 38
1044 124 l158 39 122 -64 c68 -35 153 -86 189 -112 73 -52 152 -121 152 -133
0 -6 -318 -358 -406 -449 l-23 -25 -121 55 c-67 29 -124 57 -126 61 -2 3 -29
116 -60 250 -30 134 -62 250 -70 258 -11 11 -19 12 -32 4 -9 -6 -65 -102 -124
-215 l-107 -204 -53 -11 c-119 -24 -250 -81 -363 -157 -84 -57 -227 -198 -297
-290 -124 -167 -171 -282 -298 -725 -138 -481 -209 -654 -381 -929 -44 -69
-77 -128 -75 -130 8 -8 709 -61 951 -72 138 -6 345 -22 460 -36 248 -28 331
-33 344 -20 5 6 15 143 21 305 12 322 26 651 36 828 l7 112 66 0 c36 0 244 -5
461 -11 435 -13 443 -13 527 44 59 39 97 105 118 206 29 140 12 219 -63 282
-34 28 -192 109 -334 172 l-57 26 107 180 c58 100 110 181 113 181 4 0 28 -38
54 -84 26 -46 69 -106 97 -133 82 -80 199 -333 254 -552 57 -222 67 -494 28
-696 -8 -44 -18 -115 -21 -158 -5 -72 -4 -81 26 -142 35 -71 88 -121 167 -157
41 -19 66 -23 149 -23 92 0 104 2 153 29 97 54 139 119 170 266 72 336 60 705
-32 1055 -19 72 -49 168 -65 213 -17 45 -27 82 -23 82 14 0 152 -98 248 -176
162 -131 315 -300 466 -515 78 -110 167 -155 289 -147 164 12 307 143 326 297
9 75 -13 142 -77 239 -294 446 -745 821 -1265 1053 l-130 58 -90 134 c-50 74
-109 156 -132 184 l-42 49 154 285 c85 156 155 290 155 297 0 6 -4 12 -9 12
-7 0 -158 -160 -392 -414 l-36 -40 -69 61 c-89 78 -195 154 -314 227 -52 32
-97 60 -99 62 -6 5 47 80 134 189 161 203 374 403 633 597 73 55 146 117 161
138 103 142 39 377 -122 454 -61 28 -108 36 -157 27z m-1600 -2657 c25 -108
49 -202 55 -209 5 -7 215 -106 465 -220 250 -114 490 -225 533 -247 129 -67
151 -112 124 -250 -19 -97 -43 -146 -87 -176 -65 -44 -90 -45 -480 -32 -201 6
-414 13 -475 13 -108 2 -110 2 -121 -23 -16 -33 -35 -351 -60 -986 l-6 -172
-37 4 c-396 44 -526 55 -759 64 -152 6 -341 14 -419 18 l-142 7 60 70 c69 80
135 184 260 406 173 307 570 1053 974 1826 32 62 61 110 65 108 4 -2 26 -92
50 -201z"/>
<path d="M1240 4955 c-86 -19 -232 -92 -299 -150 -144 -123 -233 -290 -249
-464 -28 -306 120 -572 393 -707 118 -58 210 -78 340 -71 310 16 551 209 646
517 27 89 32 251 10 340 -20 81 -83 211 -136 280 -83 108 -214 197 -350 240
-91 29 -263 36 -355 15z"/>
</g>
</svg>
